<svg xmlns="http://www.w3.org/2000/svg" style="height:512px;width:512px" viewBox="0 0 512 512"><path d="m65.026 16.222-2.5 16.246-45.78-1.995L58.993 55.9l-12.809 83.897a24.402 22.78 0 0 0-14.49 20.76 24.402 22.78 0 0 0 8.655 17.382l-5.646 36.935 17.911 1.932 10.689-34.521a24.402 22.78 0 0 0 2.672-.966l52.666 23.255 42.323-24.865 22.411 49.167-62.924 63.812 9.654 63.33-33.272 39.027h41.806l16.895-37.338-10.258-55.363 37.496-16.979 5.43 39.591 48.443 1.69 2.413-37.901 56.287 28.245 3.017 41.28-8.792 36.775h53.614l-26.031-36.775-4.827-54.8-69.044-65.018 23.015-66.065 53.27 16.898-23.446 20.359a24.402 22.78 0 0 0-5.862-.644 24.402 22.78 0 0 0-24.393 22.773 24.402 22.78 0 0 0 24.393 22.773 24.402 22.78 0 0 0 24.394-22.773 24.402 22.78 0 0 0-1.293-7.403l37.668-39.591-100.764-60.19a36.806 49.947 0 0 0 .948-11.186 36.806 49.947 0 0 0-2.069-16.255c47.753-10.058 53.184-54.348 13.36-78.2 7.414 21.437 19.137 41.112-28.444 52.281a36.806 49.947 0 0 0-19.653-7.797 36.806 49.947 0 0 0-20.256 8.304c-50.167-11.088-38.1-31.037-30.6-52.787-40.513 24.277-34.134 69.75 15.946 78.843a36.806 49.947 0 0 0-1.896 15.611 36.806 49.947 0 0 0 2.327 17.381l-63.096 49.489-37.15-14.002a24.402 22.78 0 0 0 .775-5.713 24.402 22.78 0 0 0-5.861-14.726l36.202-116.825zm139.725 85.192a8.99 8.393 0 0 1 9.05 8.369 8.99 8.393 0 0 1-9.05 8.369 8.99 8.393 0 0 1-8.965-8.37 8.99 8.393 0 0 1 8.965-8.368m29.738 0a8.99 8.393 0 0 1 9.05 8.369 8.99 8.393 0 0 1-9.05 8.369 8.99 8.393 0 0 1-8.965-8.37 8.99 8.393 0 0 1 8.965-8.368"/><path d="M146.857 20.842c-12.535-.036-24.268 2.86-37.285 9.424h.004C61.356 54.6 19.966 120.734 17.982 175.91l41.848 14.236c4.33-61.89 47.057-128.37 101.527-155.86h.002a134 134 0 0 1 13.185-5.8l-22.26-7.45a84 84 0 0 0-5.428-.194zm59.34 20.19c-10.478-.09-22.832 3.093-36.424 9.943l.004-.004c-48.23 24.34-89.625 90.513-91.548 145.436l156.485 53.24c3.865-62.22 46.797-129.372 101.613-157.035h.002l.002-.003a134 134 0 0 1 12.832-5.666l-134.54-45.036a44 44 0 0 0-8.427-.873zm174.97 58.323c-10.476-.09-22.83 3.092-36.42 9.94l-.005.002c-48.577 24.518-90.225 91.473-91.586 146.623l46.205 15.72c3.914-62.188 46.825-129.274 101.607-156.92a129 129 0 0 1 13.53-5.91l-26.544-8.884a45 45 0 0 0-6.785-.57zm63.554 22.014c-10.267.093-22.094 3.353-35.333 10.034-47.158 23.8-87.777 87.587-91.362 141.75l174.55-73.726c-.404-39.01-10.754-61.304-24.415-71.082a36 36 0 0 0-7.55-4.137l-.01.034-4.735-1.584c-3.48-.887-7.195-1.327-11.144-1.29zM17.9 195.622l-.035 187.484L59.46 397.58V209.764l-41.56-14.14zm60.25 20.498v187.962l156.282 54.37V269.288l-29.053-9.886v119.43L104.325 344.75V225.025zm414.22 3.683L318.433 293.27v189.236l173.935-73.504v-189.2zm-369.354 11.582v99.947l63.675 21.477v-99.763l-63.674-21.662zm31.306 28.797c9.705 0 17.573 7.867 17.573 17.572 0 6.34-3.37 11.88-8.407 14.97v28.53h-18.69v-28.746c-4.838-3.13-8.048-8.562-8.048-14.754 0-9.705 7.867-17.572 17.572-17.572zm98.797 15.464v189.307l46.626 16.22V291.51l-46.627-15.864z" style="stroke-width:25.9079px;stroke:#fbfffb" transform="matrix(.55956 0 0 .5212 220.564 250.468)"/><path d="M303.37 259.441c-7.015-.019-13.58 1.49-20.864 4.912h.002c-26.982 12.683-50.142 47.151-51.252 75.908l23.416 7.42c2.423-32.257 26.332-66.905 56.81-81.233h.002a74.786 69.658 0 0 1 7.378-3.023l-12.456-3.883a46.828 43.617 0 0 0-3.037-.1zm33.203 10.523c-5.863-.047-12.776 1.612-20.381 5.182l.002-.002c-26.987 12.686-50.15 47.175-51.226 75.8l87.562 27.749c2.163-32.429 26.186-67.428 56.859-81.846l.002-.001a75.204 70.048 0 0 1 7.18-2.954l-75.283-23.472a24.567 22.883 0 0 0-4.715-.455zm97.906 30.397c-5.862-.046-12.775 1.612-20.379 5.181l-.003.001c-27.181 12.779-50.486 47.675-51.247 76.42l25.854 8.192c2.19-32.412 26.201-67.376 56.855-81.785a71.952 67.02 0 0 1 7.57-3.08l-14.852-4.63a25.061 23.343 0 0 0-3.797-.298zm35.562 11.474c-5.745.049-12.363 1.748-19.77 5.23-26.388 12.404-49.117 45.65-51.123 73.879l97.671-38.426c-.226-20.331-6.018-31.95-13.662-37.047a20.176 18.793 0 0 0-4.224-2.156l-.006.017-2.65-.825c-1.947-.462-4.025-.692-6.235-.672zm-238.83 38.7-.02 97.716 23.274 7.543v-97.888l-23.255-7.37zm33.713 10.684v97.964l87.448 28.337v-98.59l-16.256-5.153v62.246L279.57 428.26v-62.4zm231.78 1.92-97.328 38.29v98.628l97.327-38.31v-98.61zm-206.675 6.036v52.091l35.63 11.194v-51.996zm17.517 15.008c5.43 0 9.833 4.1 9.833 9.159 0 3.304-1.885 6.192-4.704 7.802v14.87h-10.458V401.03c-2.707-1.63-4.503-4.462-4.503-7.69 0-5.057 4.402-9.158 9.832-9.158m55.283 8.06v98.666l26.09 8.453v-98.85z"/></svg>