<?xml version="1.0" encoding="utf-8"?>
<svg xmlns="http://www.w3.org/2000/svg" viewBox="0 0 512 512" style="height: 512px; width: 512px;">
  <g class="" transform="matrix(0.861969, 0, 0, 0.80469, -36.772778, -0.379129)" style="">
    <path d="m118.1 20.63-2.9 20.19-53.11-2.48 49.01 31.6L96.24 174.2A28.31 28.31 0 0 0 79.43 200a28.31 28.31 0 0 0 10.04 21.6l-6.55 45.9 20.78 2.4 12.4-42.9a28.31 28.31 0 0 0 3.1-1.2l61.1 28.9 49.1-30.9 26 61.1-73 79.3 11.2 78.7-38.6 48.5h48.5l19.6-46.4-11.9-68.8 43.5-21.1 6.3 49.2 56.2 2.1 2.8-47.1 65.3 35.1 3.5 51.3-10.2 45.7h62.2l-30.2-45.7-5.6-68.1-80.1-80.8 26.7-82.1 61.8 21-27.2 25.3a28.31 28.31 0 0 0-6.8-.8 28.31 28.31 0 0 0-28.3 28.3 28.31 28.31 0 0 0 28.3 28.3 28.31 28.31 0 0 0 28.3-28.3 28.31 28.31 0 0 0-1.5-9.2l43.7-49.2L333 155.3a42.7 62.07 0 0 0 1.1-13.9 42.7 62.07 0 0 0-2.4-20.2c55.4-12.5 61.7-67.54 15.5-97.18 8.6 26.64 22.2 51.09-33 64.97a42.7 62.07 0 0 0-22.8-9.69 42.7 62.07 0 0 0-23.5 10.32c-58.2-13.78-44.2-38.57-35.5-65.6-47 30.17-39.6 86.68 18.5 97.98a42.7 62.07 0 0 0-2.2 19.4 42.7 62.07 0 0 0 2.7 21.6l-73.2 61.5-43.1-17.4a28.31 28.31 0 0 0 .9-7.1 28.31 28.31 0 0 0-6.8-18.3l42-145.18zM280.2 126.5a10.43 10.43 0 0 1 10.5 10.4 10.43 10.43 0 0 1-10.5 10.4 10.43 10.43 0 0 1-10.4-10.4 10.43 10.43 0 0 1 10.4-10.4zm34.5 0a10.43 10.43 0 0 1 10.5 10.4 10.43 10.43 0 0 1-10.5 10.4 10.43 10.43 0 0 1-10.4-10.4 10.43 10.43 0 0 1 10.4-10.4z" fill="#000000" fill-opacity="1"/>
  </g>
  <g class="" style="" transform="matrix(0.559558, 0, 0, 0.521193, 220.564346, 250.467667)">
    <path d="M146.857 20.842c-12.535-.036-24.268 2.86-37.285 9.424h.004C61.356 54.6 19.966 120.734 17.982 175.91l41.848 14.236c4.33-61.89 47.057-128.37 101.527-155.86h.002a133.652 133.652 0 0 1 13.185-5.8l-22.26-7.45a83.687 83.687 0 0 0-5.428-.194zm59.34 20.19c-10.478-.09-22.832 3.093-36.424 9.943l.004-.004c-48.23 24.34-89.625 90.513-91.548 145.436l156.485 53.24c3.865-62.22 46.797-129.372 101.613-157.035h.002l.002-.003a134.399 134.399 0 0 1 12.832-5.666l-134.54-45.036a43.905 43.905 0 0 0-8.427-.873zm174.97 58.323c-10.476-.09-22.83 3.092-36.42 9.94l-.005.002c-48.577 24.518-90.225 91.473-91.586 146.623l46.205 15.72c3.914-62.188 46.825-129.274 101.607-156.92a128.588 128.588 0 0 1 13.53-5.91l-26.544-8.884a44.788 44.788 0 0 0-6.785-.57zm63.554 22.014c-10.267.093-22.094 3.353-35.333 10.034-47.158 23.8-87.777 87.587-91.362 141.75l174.55-73.726c-.404-39.01-10.754-61.304-24.415-71.082a36.057 36.057 0 0 0-7.55-4.137l-.01.034-4.735-1.584c-3.48-.887-7.195-1.327-11.144-1.29zM17.9 195.622l-.035 187.484L59.46 397.58V209.764l-41.56-14.14zm60.25 20.498v187.962l156.282 54.37V269.288l-29.053-9.886v119.43L104.325 344.75V225.025L78.15 216.12zm414.22 3.683L318.433 293.27v189.236l173.935-73.504v-189.2zm-369.354 11.582v99.947l63.675 21.477v-99.763l-63.674-21.662zm31.306 28.797c9.705 0 17.573 7.867 17.573 17.572 0 6.34-3.37 11.88-8.407 14.97v28.53h-18.69v-28.746c-4.838-3.13-8.048-8.562-8.048-14.754 0-9.705 7.867-17.572 17.572-17.572zm98.797 15.464v189.307l46.626 16.22V291.51l-46.627-15.864z" fill="#000000" fill-opacity="1" style="stroke-width: 25.9079px; stroke: rgb(251, 255, 251);"/>
  </g>
  <g class="" style="" transform="matrix(0.559558, 0, 0, 0.521193, 221.194122, 248.578369)">
    <path d="M146.857 20.842c-12.535-.036-24.268 2.86-37.285 9.424h.004C61.356 54.6 19.966 120.734 17.982 175.91l41.848 14.236c4.33-61.89 47.057-128.37 101.527-155.86h.002a133.652 133.652 0 0 1 13.185-5.8l-22.26-7.45a83.687 83.687 0 0 0-5.428-.194zm59.34 20.19c-10.478-.09-22.832 3.093-36.424 9.943l.004-.004c-48.23 24.34-89.625 90.513-91.548 145.436l156.485 53.24c3.865-62.22 46.797-129.372 101.613-157.035h.002l.002-.003a134.399 134.399 0 0 1 12.832-5.666l-134.54-45.036a43.905 43.905 0 0 0-8.427-.873zm174.97 58.323c-10.476-.09-22.83 3.092-36.42 9.94l-.005.002c-48.577 24.518-90.225 91.473-91.586 146.623l46.205 15.72c3.914-62.188 46.825-129.274 101.607-156.92a128.588 128.588 0 0 1 13.53-5.91l-26.544-8.884a44.788 44.788 0 0 0-6.785-.57zm63.554 22.014c-10.267.093-22.094 3.353-35.333 10.034-47.158 23.8-87.777 87.587-91.362 141.75l174.55-73.726c-.404-39.01-10.754-61.304-24.415-71.082a36.057 36.057 0 0 0-7.55-4.137l-.01.034-4.735-1.584c-3.48-.887-7.195-1.327-11.144-1.29zM17.9 195.622l-.035 187.484L59.46 397.58V209.764l-41.56-14.14zm60.25 20.498v187.962l156.282 54.37V269.288l-29.053-9.886v119.43L104.325 344.75V225.025L78.15 216.12zm414.22 3.683L318.433 293.27v189.236l173.935-73.504v-189.2zm-369.354 11.582v99.947l63.675 21.477v-99.763l-63.674-21.662zm31.306 28.797c9.705 0 17.573 7.867 17.573 17.572 0 6.34-3.37 11.88-8.407 14.97v28.53h-18.69v-28.746c-4.838-3.13-8.048-8.562-8.048-14.754 0-9.705 7.867-17.572 17.572-17.572zm98.797 15.464v189.307l46.626 16.22V291.51l-46.627-15.864z" fill="#000000" fill-opacity="1"/>
  </g>
</svg>