<svg viewBox="0 0 24 24" fill="none" xmlns="http://www.w3.org/2000/svg" id="Eraser--Streamline-Solar-Broken" height="24" width="24">
  <path d="m5.50506 11.4096 0.53033 0.5303 -0.53033 -0.5303ZM3 14.9522l-0.75 0 0.75 0Zm9.5904 3.5427 -0.5303 -0.5303 0.5303 0.5303ZM9.04776 21v0.75V21ZM11.4096 5.50506l-0.5304 -0.53033 0.5304 0.53033ZM13.241 17.8444c0.2929 0.2929 0.7678 0.2929 1.0607 0 0.2929 -0.2929 0.2929 -0.7678 0 -1.0607l-1.0607 1.0607ZM7.21629 9.69832c-0.29289 -0.29289 -0.76777 -0.29289 -1.06066 0 -0.29289 0.2929 -0.29289 0.76778 0 1.06068l1.06066 -1.06068ZM16.073 16.073c0.2929 -0.2929 0.2929 -0.7677 0 -1.0606 -0.2929 -0.2929 -0.7677 -0.2929 -1.0606 0l1.0606 1.0606Zm2.3946 -4.5171c-0.2917 0.294 -0.2899 0.7689 0.0042 1.0606 0.294 0.2918 0.7689 0.2899 1.0606 -0.0041l-1.0648 -1.0565Zm-12.43221 0.384 5.90451 -5.90451 -1.0607 -1.06066 -5.90447 5.90447 1.06066 1.0607Zm0 6.0247c-0.85001 -0.85 -1.43304 -1.4353 -1.81286 -1.9331 -0.36661 -0.4805 -0.47253 -0.7904 -0.47253 -1.0793l-1.5 0c0 0.7488 0.31159 1.3752 0.78 1.9892 0.45521 0.5966 1.1247 1.2638 1.94473 2.0839l1.06066 -1.0607Zm-1.06066 -7.0854c-0.82003 0.82 -1.48952 1.4873 -1.94473 2.0839 -0.46841 0.6139 -0.78 1.2404 -0.78 1.9891h1.5c0 -0.2889 0.10592 -0.5987 0.47253 -1.0792 0.37982 -0.4978 0.96285 -1.0831 1.81286 -1.9331l-1.06066 -1.0607Zm7.08537 7.0854c-0.85 0.85 -1.4353 1.4331 -1.9331 1.8129 -0.48049 0.3666 -0.79035 0.4725 -1.07924 0.4725v1.5c0.74873 0 1.37524 -0.3116 1.98914 -0.78 0.5966 -0.4552 1.2639 -1.1247 2.0839 -1.9447l-1.0607 -1.0607Zm-7.08537 1.0607c0.82003 0.82 1.48728 1.4895 2.0839 1.9447 0.61393 0.4684 1.24039 0.78 1.98913 0.78v-1.5c-0.2889 0 -0.59876 -0.1059 -1.07926 -0.4725 -0.49781 -0.3798 -1.08309 -0.9629 -1.93311 -1.8129l-1.06066 1.0607ZM17.9646 6.03539c0.85 0.85002 1.4331 1.4353 1.8129 1.93311 0.3666 0.4805 0.4725 0.79036 0.4725 1.07926h1.5c0 -0.74874 -0.3116 -1.3752 -0.78 -1.98913 -0.4552 -0.59662 -1.1247 -1.26387 -1.9447 -2.0839l-1.0607 1.06066Zm1.0607 -1.06066C18.2052 4.1547 17.538 3.48521 16.9414 3.03c-0.614 -0.46841 -1.2404 -0.78 -1.9892 -0.78v1.5c0.2889 0 0.5988 0.10592 1.0793 0.47253 0.4978 0.37982 1.0831 0.96285 1.9331 1.81286l1.0607 -1.06066Zm-7.0854 1.06066c0.85 -0.85001 1.4353 -1.43304 1.9331 -1.81286 0.4805 -0.36661 0.7903 -0.47253 1.0792 -0.47253v-1.5c-0.7487 0 -1.3752 0.31159 -1.9891 0.78 -0.5966 0.45521 -1.2639 1.1247 -2.0839 1.94473l1.0607 1.06066Zm2.3618 10.74831L7.21629 9.69832 6.15563 10.759l7.08537 7.0854 1.0607 -1.0607Zm0.7107 -1.7713 -2.9523 2.9522 1.0607 1.0607 2.9522 -2.9523 -1.0606 -1.0606Zm4.52 -2.4c0.6608 -0.666 1.206 -1.2365 1.5816 -1.772 0.3883 -0.5535 0.636 -1.12529 0.636 -1.79264h-1.5c0 0.25979 -0.0856 0.53431 -0.364 0.93124 -0.2911 0.415 -0.7459 0.8991 -1.4184 1.5769l1.0648 1.0565Z" fill="#000000" stroke-width="1.5"></path>
  <path d="M9 21h12" stroke="#000000" stroke-linecap="round" stroke-width="1.5"></path>
</svg>