<svg xmlns="http://www.w3.org/2000/svg" viewBox="0 0 100 100"><g transform="matrix(.86938 0 0 .86653 6.196 6.68)"><path d="M38.273 38.766 25.192 37.53s-1.742.046-.772-.924c.978-.974 3.335-3.335 3.335-3.335s-.575-.574-1.451-1.458l-8.961-8.96s-.645-.377.128-1.143c.772-.78 4.143-4.153 4.694-4.698.543-.551.96-.106.96-.106 1.812 1.804 6.554 6.542 8.983 8.977.792.79 1.307 1.307 1.307 1.307s1.89-1.894 3.084-3.085c1.187-1.186 1.179.603 1.179.603s1.655 11.721 1.655 13.122c.002 1.022-1.06.936-1.06.936M47.771 46.492 60.85 47.73s1.746-.05.776.92c-.975.974-3.34 3.347-3.34 3.347s.572.563 1.458 1.45c2.52 2.517 7.097 7.096 8.965 8.968 0 0 .637.365-.129 1.13-.771.776-4.149 4.157-4.706 4.706-.54.544-.952.11-.952.11-1.812-1.815-6.554-6.55-8.987-8.982-.787-.788-1.294-1.299-1.294-1.299s-1.894 1.886-3.093 3.076c-1.186 1.191-1.186-.599-1.186-.599s-1.644-11.729-1.644-13.122c-.004-1.024 1.054-.942 1.054-.942M38.999 47.362l-1.233 13.086s.05 1.75-.924.772c-.978-.982-3.343-3.34-3.343-3.34s-.575.576-1.445 1.458c-2.521 2.521-7.109 7.097-8.973 8.969 0 0-.373.629-1.142-.137s-4.141-4.152-4.698-4.69c-.551-.547-.11-.966-.11-.966 1.811-1.803 6.545-6.55 8.982-8.983.792-.787 1.307-1.302 1.307-1.302s-1.89-1.894-3.084-3.077c-1.195-1.194.595-1.186.595-1.186s11.729-1.648 13.134-1.648c1.02-.006.934 1.044.934 1.044M46.725 37.868l1.233-13.09s-.046-1.737.924-.767l3.339 3.343 1.46-1.457c2.518-2.521 7.094-7.097 8.962-8.961 0 0 .373-.641 1.142.132.772.764 4.145 4.141 4.694 4.686.555.551.114.966.114.966-1.808 1.812-6.55 6.55-8.979 8.983L58.3 33.002s1.898 1.89 3.088 3.08c1.187 1.199-.595 1.187-.595 1.187S49.064 38.92 47.659 38.92c-1.016.006-.934-1.052-.934-1.052"/><circle cx="45.863" cy="56.452" r="8" class="st0" style="fill:none;stroke:#1e1e1e;stroke-linecap:round;stroke-linejoin:round;stroke-miterlimit:10;stroke-width:2" transform="matrix(5.17101 0 0 5.21865 -194.408 -252.377)"/><path d="M99.631 99.631 72.225 71.972" class="st0" style="fill:none;stroke:#1e1e1e;stroke-linecap:round;stroke-linejoin:round;stroke-miterlimit:10;stroke-width:10.39"/></g></svg>